<svg xmlns="http://www.w3.org/2000/svg" viewBox="0 0 200 180"><defs><linearGradient id="f"><stop stop-color="#fff"/><stop offset=".45" stop-color="#b9e9ff"/><stop offset="1" stop-color="#4ba3f6"/></linearGradient><filter id="g"><feGaussianBlur stdDeviation="5" result="b"/><feMerge><feMergeNode in="b"/><feMergeNode in="SourceGraphic"/></feMerge></filter></defs><ellipse cx="102" cy="148" rx="62" ry="14" fill="#000" opacity=".25"/><path d="M22 92c17-43 54-61 91-49l31-28-9 35c26 14 37 37 29 61-8 26-32 43-66 43-38 0-72-22-76-62Z" fill="url(#f)" stroke="#d9f5ff" stroke-width="4" filter="url(#g)"/><path d="M72 62L58 25l32 24M132 59l24-28-6 41" fill="#9edfff"/><path d="M55 124L32 157M83 140l-8 28M128 139l16 27" stroke="#c8eeff" stroke-width="13" stroke-linecap="round"/><circle cx="129" cy="79" r="5" fill="#ff334e"/><path d="M143 92l22 8-19 12" fill="#243b56"/><path d="M29 85C9 67 7 44 20 29c5 25 14 34 33 38" fill="none" stroke="#4aa2ff" stroke-width="12" filter="url(#g)"/></svg>